<svg id="visual" viewBox="0 0 960 540" width="960" height="540" xmlns="http://www.w3.org/2000/svg" xmlns:xlink="http://www.w3.org/1999/xlink" version="1.1"><rect x="0" y="0" width="960" height="540" fill="#001122"></rect><defs><linearGradient id="grad1_0" x1="43.8%" y1="0%" x2="100%" y2="100%"><stop offset="14.444444444444446%" stop-color="#001122" stop-opacity="1"></stop><stop offset="85.55555555555554%" stop-color="#001122" stop-opacity="1"></stop></linearGradient></defs><defs><linearGradient id="grad2_0" x1="0%" y1="0%" x2="56.3%" y2="100%"><stop offset="14.444444444444446%" stop-color="#001122" stop-opacity="1"></stop><stop offset="85.55555555555554%" stop-color="#001122" stop-opacity="1"></stop></linearGradient></defs><g transform="translate(960, 0)"><path d="M0 189C-17.2 185.5 -34.4 182 -46.1 171.9C-57.7 161.8 -63.9 145.2 -81.5 141.2C-99.1 137.2 -128.2 145.9 -133.6 133.6C-139.1 121.4 -120.8 88.2 -123 71C-125.2 53.8 -147.9 52.6 -162.3 43.5C-176.7 34.3 -182.8 17.2 -189 0L0 0Z" fill="#FCAF3C"></path></g><g transform="translate(0, 540)"><path d="M0 -189C16.8 -187.4 33.7 -185.9 47.9 -178.7C62.1 -171.5 73.6 -158.7 86.5 -149.8C99.4 -140.9 113.5 -136 128 -128C142.5 -120 157.3 -109 163.7 -94.5C170.1 -80 168.1 -62.1 171 -45.8C173.8 -29.5 181.4 -14.7 189 0L0 0Z" fill="#FCAF3C"></path></g></svg>